<svg xmlns="http://www.w3.org/2000/svg" width="30" height="30" viewBox="0 0 30 30" fill="none">
  <path d="M24 16C24.5523 16 25 15.5523 25 15C25 14.4477 24.5523 14 24 14L24 16ZM4.29289 14.2929C3.90237 14.6834 3.90237 15.3166 4.29289 15.7071L10.6569 22.0711C11.0474 22.4616 11.6805 22.4616 12.0711 22.0711C12.4616 21.6805 12.4616 21.0474 12.0711 20.6569L6.41421 15L12.0711 9.34315C12.4616 8.95262 12.4616 8.31946 12.0711 7.92893C11.6805 7.53841 11.0474 7.53841 10.6569 7.92893L4.29289 14.2929ZM24 14L5 14L5 16L24 16L24 14Z" fill="#808080"/>
</svg> 