<svg xmlns="http://www.w3.org/2000/svg" width="40" height="40" viewBox="0 0 40 40" fill="none">
  <path d="M34.3812 26.6648C34.2515 26.5086 34.1241 26.3523 33.9991 26.2016C32.2804 24.1227 31.2405 22.868 31.2405 16.9828C31.2405 13.9359 30.5116 11.4359 29.0749 9.56094C28.0155 8.17578 26.5835 7.125 24.696 6.34844C24.6717 6.33493 24.65 6.3172 24.6319 6.29609C23.953 4.02266 22.0952 2.5 19.9999 2.5C17.9046 2.5 16.0476 4.02266 15.3687 6.29375C15.3505 6.31408 15.3292 6.33125 15.3054 6.34453C10.9007 8.15781 8.76006 11.6367 8.76006 16.9805C8.76006 22.868 7.72178 24.1227 6.00147 26.1992C5.87647 26.35 5.74913 26.5031 5.61944 26.6625C5.28444 27.0665 5.07219 27.558 5.00781 28.0789C4.94343 28.5997 5.02961 29.1281 5.25616 29.6016C5.73819 30.6172 6.76553 31.2477 7.93819 31.2477H32.0702C33.2374 31.2477 34.2577 30.618 34.7413 29.607C34.9688 29.1335 35.0558 28.6047 34.992 28.0832C34.9282 27.5617 34.7162 27.0695 34.3812 26.6648ZM19.9999 37.5C21.1288 37.4991 22.2365 37.1926 23.2053 36.6132C24.1742 36.0337 24.9682 35.2028 25.503 34.2086C25.5282 34.1609 25.5407 34.1076 25.5392 34.0537C25.5376 33.9998 25.5222 33.9473 25.4944 33.9011C25.4666 33.855 25.4273 33.8168 25.3803 33.7903C25.3334 33.7638 25.2804 33.7499 25.2265 33.75H14.7749C14.7209 33.7498 14.6678 33.7636 14.6208 33.79C14.5737 33.8164 14.5343 33.8546 14.5064 33.9008C14.4785 33.947 14.463 33.9996 14.4614 34.0535C14.4599 34.1075 14.4723 34.1609 14.4976 34.2086C15.0324 35.2027 15.8262 36.0335 16.7949 36.613C17.7636 37.1924 18.8711 37.4989 19.9999 37.5Z" fill="#40A7E3"/>
</svg>