<svg xmlns="http://www.w3.org/2000/svg" width="40" height="40" viewBox="0 0 40 40" fill="none">
  <path d="M29.1668 20C29.1683 21.2487 28.914 22.4844 28.4195 23.631C27.9251 24.7776 27.2009 25.8107 26.2918 26.6667C24.5922 28.2751 22.3402 29.1699 20.0002 29.1667C17.5652 29.1667 15.3502 28.2167 13.7085 26.6667C12.7994 25.8107 12.0753 24.7776 11.5808 23.631C11.0863 22.4844 10.832 21.2487 10.8335 20H29.1668Z" fill="#40A7E3"/>
  <path fill-rule="evenodd" clip-rule="evenodd" d="M1.66675 11.6667C1.66675 9.01458 2.72032 6.47104 4.59568 4.59568C6.47104 2.72032 9.01458 1.66675 11.6667 1.66675H28.3334C30.9856 1.66675 33.5291 2.72032 35.4045 4.59568C37.2798 6.47104 38.3334 9.01458 38.3334 11.6667V28.3334C38.3334 30.9856 37.2798 33.5291 35.4045 35.4045C33.5291 37.2798 30.9856 38.3334 28.3334 38.3334H1.66675V11.6667ZM6.25008 20.0001C6.25008 16.3534 7.69874 12.856 10.2774 10.2774C12.856 7.69874 16.3534 6.25008 20.0001 6.25008C23.6468 6.25008 27.1442 7.69874 29.7228 10.2774C32.3014 12.856 33.7501 16.3534 33.7501 20.0001C33.7501 23.6468 32.3014 27.1442 29.7228 29.7228C27.1442 32.3014 23.6468 33.7501 20.0001 33.7501C16.3534 33.7501 12.856 32.3014 10.2774 29.7228C7.69874 27.1442 6.25008 23.6468 6.25008 20.0001Z" fill="#40A7E3"/>
</svg>