<svg xmlns="http://www.w3.org/2000/svg" width="30" height="30" viewBox="0 0 30 30" fill="none">
  <g clip-path="url(#clip0_2026_463)">
    <path d="M12.5 23.75C12.5 23.087 12.7634 22.4511 13.2322 21.9822C13.7011 21.5134 14.337 21.25 15 21.25C15.663 21.25 16.2989 21.5134 16.7678 21.9822C17.2366 22.4511 17.5 23.087 17.5 23.75C17.5 24.413 17.2366 25.0489 16.7678 25.5178C16.2989 25.9866 15.663 26.25 15 26.25C14.337 26.25 13.7011 25.9866 13.2322 25.5178C12.7634 25.0489 12.5 24.413 12.5 23.75ZM12.5 15C12.5 14.337 12.7634 13.7011 13.2322 13.2322C13.7011 12.7634 14.337 12.5 15 12.5C15.663 12.5 16.2989 12.7634 16.7678 13.2322C17.2366 13.7011 17.5 14.337 17.5 15C17.5 15.663 17.2366 16.2989 16.7678 16.7678C16.2989 17.2366 15.663 17.5 15 17.5C14.337 17.5 13.7011 17.2366 13.2322 16.7678C12.7634 16.2989 12.5 15.663 12.5 15ZM12.5 6.25C12.5 5.58696 12.7634 4.95107 13.2322 4.48223C13.7011 4.01339 14.337 3.75 15 3.75C15.663 3.75 16.2989 4.01339 16.7678 4.48223C17.2366 4.95107 17.5 5.58696 17.5 6.25C17.5 6.91304 17.2366 7.54893 16.7678 8.01777C16.2989 8.48661 15.663 8.75 15 8.75C14.337 8.75 13.7011 8.48661 13.2322 8.01777C12.7634 7.54893 12.5 6.91304 12.5 6.25Z" fill="#808080"/>
  </g>
  <defs>
    <clipPath id="clip0_2026_463">
      <rect width="30" height="30" fill="white"/>
    </clipPath>
  </defs>
</svg> 