<svg xmlns="http://www.w3.org/2000/svg" width="240" height="240" viewBox="0 0 240 240" fill="none">
  <g opacity="0.5">
    <mask id="mask0_2003_768" style="mask-type:luminance" maskUnits="userSpaceOnUse" x="108" y="225" width="16" height="15">
      <path d="M108.108 225.946H123.243V240H108.108V225.946Z" fill="white"/>
    </mask>
    <g mask="url(#mask0_2003_768)">
      <mask id="mask1_2003_768" style="mask-type:luminance" maskUnits="userSpaceOnUse" x="108" y="225" width="15" height="15">
        <path d="M116.406 227.006L109.802 233.611C108.433 234.975 108.433 237.2 109.802 238.573C110.486 239.253 111.385 239.599 112.285 239.599C113.18 239.599 114.079 239.253 114.764 238.573L121.368 231.968C122.737 230.596 122.737 228.366 121.368 227.006C119.996 225.634 117.775 225.634 116.406 227.006Z" fill="white"/>
      </mask>
      <g mask="url(#mask1_2003_768)">
        <mask id="mask2_2003_768" style="mask-type:luminance" maskUnits="userSpaceOnUse" x="108" y="225" width="15" height="15">
          <path d="M116.406 227.006L109.802 233.611C108.433 234.975 108.433 237.2 109.802 238.573C110.486 239.253 111.385 239.599 112.285 239.599C113.18 239.599 114.079 239.253 114.764 238.573L121.368 231.968C122.737 230.596 122.737 228.366 121.368 227.006C119.996 225.634 117.775 225.634 116.406 227.006Z" fill="white"/>
        </mask>
        <g mask="url(#mask2_2003_768)">
          <path d="M108.433 225.634V239.599H122.736V225.634H108.433Z" fill="#40A7E3"/>
        </g>
      </g>
    </g>
    <mask id="mask3_2003_768" style="mask-type:luminance" maskUnits="userSpaceOnUse" x="92" y="190" width="35" height="35">
      <path d="M92.9731 190.27H126.487V224.865H92.9731V190.27Z" fill="white"/>
    </mask>
    <g mask="url(#mask3_2003_768)">
      <mask id="mask4_2003_768" style="mask-type:luminance" maskUnits="userSpaceOnUse" x="93" y="191" width="34" height="34">
        <path d="M125.253 192.044C123.881 190.671 121.66 190.671 120.291 192.044L94.261 218.066C92.8928 219.438 92.8928 221.655 94.261 223.028C94.9494 223.72 95.8447 224.054 96.7442 224.054C97.6394 224.054 98.5389 223.72 99.223 223.028L125.253 197.006C126.622 195.633 126.622 193.404 125.253 192.044Z" fill="white"/>
      </mask>
      <g mask="url(#mask4_2003_768)">
        <mask id="mask5_2003_768" style="mask-type:luminance" maskUnits="userSpaceOnUse" x="93" y="191" width="34" height="34">
          <path d="M125.253 192.044C123.881 190.671 121.66 190.671 120.291 192.044L94.261 218.066C92.8928 219.438 92.8928 221.655 94.261 223.028C94.9494 223.72 95.8447 224.054 96.7442 224.054C97.6394 224.054 98.5389 223.72 99.223 223.028L125.253 197.006C126.622 195.633 126.622 193.404 125.253 192.044Z" fill="white"/>
        </mask>
        <g mask="url(#mask5_2003_768)">
          <path d="M92.8926 190.671V224.054H126.621V190.671H92.8926Z" fill="#40A7E3"/>
        </g>
      </g>
    </g>
    <mask id="mask6_2003_768" style="mask-type:luminance" maskUnits="userSpaceOnUse" x="124" y="214" width="11" height="10">
      <path d="M124.324 214.054H134.054V223.784H124.324V214.054Z" fill="white"/>
    </mask>
    <g mask="url(#mask6_2003_768)">
      <mask id="mask7_2003_768" style="mask-type:luminance" maskUnits="userSpaceOnUse" x="125" y="214" width="10" height="10">
        <path d="M128.062 215.35L126.119 217.284C124.747 218.661 124.747 220.886 126.119 222.246C126.803 222.939 127.703 223.277 128.598 223.277C129.498 223.277 130.393 222.939 131.081 222.246L133.024 220.312C134.392 218.94 134.392 216.714 133.024 215.35C131.651 213.978 129.43 213.978 128.062 215.35Z" fill="white"/>
      </mask>
      <g mask="url(#mask7_2003_768)">
        <mask id="mask8_2003_768" style="mask-type:luminance" maskUnits="userSpaceOnUse" x="125" y="214" width="10" height="10">
          <path d="M128.062 215.35L126.119 217.284C124.747 218.661 124.747 220.886 126.119 222.246C126.803 222.939 127.703 223.277 128.598 223.277C129.498 223.277 130.393 222.939 131.081 222.246L133.024 220.312C134.392 218.94 134.392 216.714 133.024 215.35C131.651 213.978 129.43 213.978 128.062 215.35Z" fill="white"/>
        </mask>
        <g mask="url(#mask8_2003_768)">
          <path d="M124.747 213.978V223.277H134.392V213.978H124.747Z" fill="#40A7E3"/>
        </g>
      </g>
    </g>
    <mask id="mask9_2003_768" style="mask-type:luminance" maskUnits="userSpaceOnUse" x="0" y="116" width="15" height="16">
      <path d="M0 116.757H14.0541V131.892H0V116.757Z" fill="white"/>
    </mask>
    <g mask="url(#mask9_2003_768)">
      <mask id="mask10_2003_768" style="mask-type:luminance" maskUnits="userSpaceOnUse" x="0" y="117" width="14" height="14">
        <path d="M12.5929 118.226C11.2247 116.854 9.00338 116.854 7.63091 118.226L1.02618 124.831C-0.342061 126.204 -0.342061 128.421 1.02618 129.793C1.71453 130.477 2.6098 130.824 3.50929 130.824C4.40456 130.824 5.30405 130.477 5.98818 129.793L12.5929 123.188C13.9611 121.816 13.9611 119.599 12.5929 118.226Z" fill="white"/>
      </mask>
      <g mask="url(#mask10_2003_768)">
        <mask id="mask11_2003_768" style="mask-type:luminance" maskUnits="userSpaceOnUse" x="0" y="117" width="14" height="14">
          <path d="M12.5929 118.226C11.2247 116.854 9.00338 116.854 7.63091 118.226L1.02618 124.831C-0.342061 126.204 -0.342061 128.421 1.02618 129.793C1.71453 130.477 2.6098 130.824 3.50929 130.824C4.40456 130.824 5.30405 130.477 5.98818 129.793L12.5929 123.188C13.9611 121.816 13.9611 119.599 12.5929 118.226Z" fill="white"/>
        </mask>
        <g mask="url(#mask11_2003_768)">
          <path d="M-0.342285 116.854V130.824H13.9609V116.854H-0.342285Z" fill="#40A7E3"/>
        </g>
      </g>
    </g>
    <mask id="mask12_2003_768" style="mask-type:luminance" maskUnits="userSpaceOnUse" x="15" y="112" width="34" height="36">
      <path d="M15.1353 112.432H48.6488V147.027H15.1353V112.432Z" fill="white"/>
    </mask>
    <g mask="url(#mask12_2003_768)">
      <mask id="mask13_2003_768" style="mask-type:luminance" maskUnits="userSpaceOnUse" x="15" y="113" width="34" height="34">
        <path d="M19.0456 146.355C19.9451 146.355 20.8446 146.022 21.5287 145.329L47.5549 119.307C48.9274 117.935 48.9274 115.709 47.5549 114.345C46.1866 112.973 43.9654 112.973 42.5929 114.345L16.5667 140.367C15.1985 141.74 15.1985 143.969 16.5667 145.329C17.2508 146.022 18.1503 146.355 19.0456 146.355Z" fill="white"/>
      </mask>
      <g mask="url(#mask13_2003_768)">
        <mask id="mask14_2003_768" style="mask-type:luminance" maskUnits="userSpaceOnUse" x="15" y="113" width="34" height="34">
          <path d="M19.0456 146.355C19.9451 146.355 20.8446 146.022 21.5287 145.329L47.5549 119.307C48.9274 117.935 48.9274 115.709 47.5549 114.345C46.1866 112.973 43.9654 112.973 42.5929 114.345L16.5667 140.367C15.1985 141.74 15.1985 143.969 16.5667 145.329C17.2508 146.022 18.1503 146.355 19.0456 146.355Z" fill="white"/>
        </mask>
        <g mask="url(#mask14_2003_768)">
          <path d="M15.1982 112.973V146.356H48.9271V112.973H15.1982Z" fill="#40A7E3"/>
        </g>
      </g>
    </g>
    <mask id="mask15_2003_768" style="mask-type:luminance" maskUnits="userSpaceOnUse" x="16" y="104" width="10" height="11">
      <path d="M16.2163 104.865H25.946V114.594H16.2163V104.865Z" fill="white"/>
    </mask>
    <g mask="url(#mask15_2003_768)">
      <mask id="mask16_2003_768" style="mask-type:luminance" maskUnits="userSpaceOnUse" x="16" y="105" width="10" height="10">
        <path d="M19.8267 114.51C20.7219 114.51 21.6214 114.164 22.3056 113.48L24.2481 111.537C25.6164 110.16 25.6164 107.948 24.2481 106.571C22.8757 105.198 20.6544 105.198 19.2861 106.571L17.3436 108.518C15.9753 109.882 15.9753 112.107 17.3436 113.48C18.0277 114.164 18.9272 114.51 19.8267 114.51Z" fill="white"/>
      </mask>
      <g mask="url(#mask16_2003_768)">
        <mask id="mask17_2003_768" style="mask-type:luminance" maskUnits="userSpaceOnUse" x="16" y="105" width="10" height="10">
          <path d="M19.8267 114.51C20.7219 114.51 21.6214 114.164 22.3056 113.48L24.2481 111.537C25.6164 110.16 25.6164 107.948 24.2481 106.571C22.8757 105.198 20.6544 105.198 19.2861 106.571L17.3436 108.518C15.9753 109.882 15.9753 112.107 17.3436 113.48C18.0277 114.164 18.9272 114.51 19.8267 114.51Z" fill="white"/>
        </mask>
        <g mask="url(#mask17_2003_768)">
          <path d="M15.9756 105.198V114.51H25.6166V105.198H15.9756Z" fill="#40A7E3"/>
        </g>
      </g>
    </g>
    <mask id="mask18_2003_768" style="mask-type:luminance" maskUnits="userSpaceOnUse" x="10" y="172" width="56" height="57">
      <path d="M10.811 172.973H65.9462V228.108H10.811V172.973Z" fill="white"/>
    </mask>
    <g mask="url(#mask18_2003_768)">
      <mask id="mask19_2003_768" style="mask-type:luminance" maskUnits="userSpaceOnUse" x="11" y="173" width="55" height="56">
        <path d="M57.8166 195.524C55.3082 203.256 47.3394 212.107 39.282 216.106C31.1992 220.118 22.9475 220.895 18.5979 220.997C18.6865 216.66 19.4593 208.442 23.4923 200.312C27.4914 192.259 36.3386 184.29 44.0751 181.774C45.4137 181.339 47.0776 180.963 48.7794 180.963C49.9872 180.963 51.2119 181.157 52.3563 181.655L57.9391 187.242C59.1553 190 58.5598 193.231 57.8166 195.524ZM63.3191 182.69L56.9002 176.279C56.6511 176.03 56.3639 175.815 56.0472 175.654C52.086 173.577 47.1958 173.383 41.9087 175.101C32.2676 178.226 22.1114 187.318 17.2043 197.2C10.5066 210.693 11.6173 224.172 11.668 224.747C11.82 226.432 13.1587 227.774 14.8521 227.922C14.9999 227.948 16.0261 228.024 17.7026 228.024C22.4534 228.024 32.4239 227.339 42.3985 222.39C52.2803 217.483 61.3639 207.331 64.4931 197.686C66.2077 192.399 66.0176 187.513 63.9441 183.547C63.7794 183.231 63.5683 182.952 63.3191 182.69Z" fill="white"/>
      </mask>
      <g mask="url(#mask19_2003_768)">
        <mask id="mask20_2003_768" style="mask-type:luminance" maskUnits="userSpaceOnUse" x="11" y="173" width="55" height="56">
          <path d="M57.8166 195.524C55.3082 203.256 47.3394 212.107 39.282 216.106C31.1992 220.118 22.9475 220.895 18.5979 220.997C18.6865 216.66 19.4593 208.442 23.4923 200.312C27.4914 192.259 36.3386 184.29 44.0751 181.774C45.4137 181.339 47.0776 180.963 48.7794 180.963C49.9872 180.963 51.2119 181.157 52.3563 181.655L57.9391 187.242C59.1553 190 58.5598 193.231 57.8166 195.524ZM63.3191 182.69L56.9002 176.279C56.6511 176.03 56.3639 175.815 56.0472 175.654C52.086 173.577 47.1958 173.383 41.9087 175.101C32.2676 178.226 22.1114 187.318 17.2043 197.2C10.5066 210.693 11.6173 224.172 11.668 224.747C11.82 226.432 13.1587 227.774 14.8521 227.922C14.9999 227.948 16.0261 228.024 17.7026 228.024C22.4534 228.024 32.4239 227.339 42.3985 222.39C52.2803 217.483 61.3639 207.331 64.4931 197.686C66.2077 192.399 66.0176 187.513 63.9441 183.547C63.7794 183.231 63.5683 182.952 63.3191 182.69Z" fill="white"/>
        </mask>
        <g mask="url(#mask20_2003_768)">
          <path d="M10.5068 173.383V228.024H66.2078V173.383H10.5068Z" fill="#40A7E3"/>
        </g>
      </g>
    </g>
    <mask id="mask21_2003_768" style="mask-type:luminance" maskUnits="userSpaceOnUse" x="33" y="0" width="207" height="207">
      <path d="M33.5137 0H240V206.486H33.5137V0Z" fill="white"/>
    </mask>
    <g mask="url(#mask21_2003_768)">
      <mask id="mask22_2003_768" style="mask-type:luminance" maskUnits="userSpaceOnUse" x="33" y="0" width="207" height="206">
        <path d="M227.572 53.5007L186.094 12.0227C201.318 7.98975 216.896 6.37657 232.179 7.41542C233.222 22.7026 231.605 38.2811 227.572 53.5007ZM184.029 128.302C168.944 143.382 151.495 155.371 132.711 163.665L75.9333 106.888C84.223 88.108 96.2078 70.6502 111.292 55.5658C130.608 36.2499 153.906 22.1283 178.421 14.2693L225.325 61.1781C217.462 85.6882 203.345 108.982 184.029 128.302ZM159.168 166.389C161.736 171.512 161.727 177.407 159.417 182.399L146.736 164.637C149.776 163.028 152.775 161.309 155.731 159.502L159.168 166.389ZM146.529 196.875L129.257 172.703C133.024 171.22 136.74 169.599 140.401 167.85L155.051 188.357L146.529 196.875ZM68.484 127.491C69.7889 122.91 71.3092 118.378 73.0321 113.902L125.688 166.562C121.225 168.294 116.693 169.806 112.107 171.115L68.484 127.491ZM80.4857 178.357L61.2458 159.113L72.821 141.752L97.8506 166.778L80.4857 178.357ZM42.7154 93.07L51.2374 84.5396L71.7484 99.2017C69.9916 102.855 68.3742 106.571 66.8919 110.333L42.7154 93.07ZM73.2137 80.4306L80.0887 83.8681C78.2813 86.82 76.571 89.8141 74.9536 92.8631L57.2002 80.1857C62.196 77.8715 68.0786 77.8588 73.2137 80.4306ZM238.932 3.83857C238.78 2.14938 237.441 0.823363 235.756 0.658667C213.666 -1.3388 190.334 1.9889 168.281 10.3039C145.541 18.885 124.122 32.8208 106.335 50.6038C97.8886 59.0497 90.3801 68.2178 83.8936 77.9222L76.3514 74.1511C66.5245 69.244 54.7044 71.157 46.9342 78.9315L34.8269 91.0387C34.0963 91.7609 33.7247 92.7786 33.8092 93.8048C33.8936 94.831 34.4299 95.7727 35.2661 96.3681L64.375 117.158C63.1884 120.616 62.12 124.096 61.174 127.61C60.8446 128.822 61.1909 130.118 62.0778 131.005L67.7619 136.693L53.8092 157.61C52.8843 159.003 53.0659 160.853 54.2484 162.031L77.5592 185.35C78.2348 186.022 79.1343 186.377 80.0381 186.377C80.7137 186.377 81.3894 186.182 81.9848 185.785L102.91 171.837L108.59 177.525C109.257 178.184 110.152 178.551 111.073 178.551C111.377 178.551 111.685 178.509 111.985 178.42C115.498 177.483 118.982 176.41 122.437 175.219L143.226 204.337C143.826 205.169 144.764 205.697 145.79 205.785C145.887 205.794 145.984 205.794 146.081 205.794C147.006 205.794 147.901 205.426 148.56 204.768L160.672 192.66C168.438 184.899 170.355 173.07 165.443 163.243L161.672 155.709C171.381 149.223 180.545 141.706 188.991 133.264C206.778 115.469 220.714 94.0539 229.291 71.3175C237.61 49.2651 240.942 25.9332 238.932 3.83857Z" fill="white"/>
      </mask>
      <g mask="url(#mask22_2003_768)">
        <mask id="mask23_2003_768" style="mask-type:luminance" maskUnits="userSpaceOnUse" x="33" y="0" width="207" height="206">
          <path d="M227.572 53.5007L186.094 12.0227C201.318 7.98975 216.896 6.37657 232.179 7.41542C233.222 22.7026 231.605 38.2811 227.572 53.5007ZM184.029 128.302C168.944 143.382 151.495 155.371 132.711 163.665L75.9333 106.888C84.223 88.108 96.2078 70.6502 111.292 55.5658C130.608 36.2499 153.906 22.1283 178.421 14.2693L225.325 61.1781C217.462 85.6882 203.345 108.982 184.029 128.302ZM159.168 166.389C161.736 171.512 161.727 177.407 159.417 182.399L146.736 164.637C149.776 163.028 152.775 161.309 155.731 159.502L159.168 166.389ZM146.529 196.875L129.257 172.703C133.024 171.22 136.74 169.599 140.401 167.85L155.051 188.357L146.529 196.875ZM68.484 127.491C69.7889 122.91 71.3092 118.378 73.0321 113.902L125.688 166.562C121.225 168.294 116.693 169.806 112.107 171.115L68.484 127.491ZM80.4857 178.357L61.2458 159.113L72.821 141.752L97.8506 166.778L80.4857 178.357ZM42.7154 93.07L51.2374 84.5396L71.7484 99.2017C69.9916 102.855 68.3742 106.571 66.8919 110.333L42.7154 93.07ZM73.2137 80.4306L80.0887 83.8681C78.2813 86.82 76.571 89.8141 74.9536 92.8631L57.2002 80.1857C62.196 77.8715 68.0786 77.8588 73.2137 80.4306ZM238.932 3.83857C238.78 2.14938 237.441 0.823363 235.756 0.658667C213.666 -1.3388 190.334 1.9889 168.281 10.3039C145.541 18.885 124.122 32.8208 106.335 50.6038C97.8886 59.0497 90.3801 68.2178 83.8936 77.9222L76.3514 74.1511C66.5245 69.244 54.7044 71.157 46.9342 78.9315L34.8269 91.0387C34.0963 91.7609 33.7247 92.7786 33.8092 93.8048C33.8936 94.831 34.4299 95.7727 35.2661 96.3681L64.375 117.158C63.1884 120.616 62.12 124.096 61.174 127.61C60.8446 128.822 61.1909 130.118 62.0778 131.005L67.7619 136.693L53.8092 157.61C52.8843 159.003 53.0659 160.853 54.2484 162.031L77.5592 185.35C78.2348 186.022 79.1343 186.377 80.0381 186.377C80.7137 186.377 81.3894 186.182 81.9848 185.785L102.91 171.837L108.59 177.525C109.257 178.184 110.152 178.551 111.073 178.551C111.377 178.551 111.685 178.509 111.985 178.42C115.498 177.483 118.982 176.41 122.437 175.219L143.226 204.337C143.826 205.169 144.764 205.697 145.79 205.785C145.887 205.794 145.984 205.794 146.081 205.794C147.006 205.794 147.901 205.426 148.56 204.768L160.672 192.66C168.438 184.899 170.355 173.07 165.443 163.243L161.672 155.709C171.381 149.223 180.545 141.706 188.991 133.264C206.778 115.469 220.714 94.0539 229.291 71.3175C237.61 49.2651 240.942 25.9332 238.932 3.83857Z" fill="white"/>
        </mask>
        <g mask="url(#mask23_2003_768)">
          <path d="M33.7246 -1.33887V205.794H240.942V-1.33887H33.7246Z" fill="#40A7E3"/>
        </g>
      </g>
    </g>
    <mask id="mask24_2003_768" style="mask-type:luminance" maskUnits="userSpaceOnUse" x="101" y="54" width="84" height="84">
      <path d="M101.622 54.054H184.865V137.297H101.622V54.054Z" fill="white"/>
    </mask>
    <g mask="url(#mask24_2003_768)">
      <mask id="mask25_2003_768" style="mask-type:luminance" maskUnits="userSpaceOnUse" x="102" y="55" width="83" height="82">
        <path d="M143.572 129.937C124.873 129.937 109.658 114.725 109.658 96.0218C109.658 77.3309 124.873 62.1071 143.572 62.1071C162.272 62.1071 177.487 77.3309 177.487 96.0218C177.487 114.725 162.272 129.937 143.572 129.937ZM143.572 55.0928C121.001 55.0928 102.639 73.4585 102.639 96.0218C102.639 118.594 121.001 136.951 143.572 136.951C166.14 136.951 184.501 118.594 184.501 96.0218C184.501 73.4585 166.14 55.0928 143.572 55.0928Z" fill="white"/>
      </mask>
      <g mask="url(#mask25_2003_768)">
        <mask id="mask26_2003_768" style="mask-type:luminance" maskUnits="userSpaceOnUse" x="102" y="55" width="83" height="82">
          <path d="M143.572 129.937C124.873 129.937 109.658 114.725 109.658 96.0218C109.658 77.3309 124.873 62.1071 143.572 62.1071C162.272 62.1071 177.487 77.3309 177.487 96.0218C177.487 114.725 162.272 129.937 143.572 129.937ZM143.572 55.0928C121.001 55.0928 102.639 73.4585 102.639 96.0218C102.639 118.594 121.001 136.951 143.572 136.951C166.14 136.951 184.501 118.594 184.501 96.0218C184.501 73.4585 166.14 55.0928 143.572 55.0928Z" fill="white"/>
        </mask>
        <g mask="url(#mask26_2003_768)">
          <path d="M102.639 55.0928V136.951H184.501V55.0928H102.639Z" fill="#40A7E3"/>
        </g>
      </g>
    </g>
    <mask id="mask27_2003_768" style="mask-type:luminance" maskUnits="userSpaceOnUse" x="115" y="68" width="56" height="56">
      <path d="M115.676 68.1082H170.811V123.243H115.676V68.1082Z" fill="white"/>
    </mask>
    <g mask="url(#mask27_2003_768)">
      <mask id="mask28_2003_768" style="mask-type:luminance" maskUnits="userSpaceOnUse" x="116" y="69" width="55" height="54">
        <path d="M143.573 115.904C132.61 115.904 123.691 106.985 123.691 96.0221C123.691 85.0593 132.61 76.1403 143.573 76.1403C154.536 76.1403 163.45 85.0593 163.45 96.0221C163.45 106.985 154.536 115.904 143.573 115.904ZM143.573 69.126C128.742 69.126 116.677 81.1995 116.677 96.0221C116.677 110.853 128.742 122.918 143.573 122.918C158.404 122.918 170.469 110.853 170.469 96.0221C170.469 81.1995 158.404 69.126 143.573 69.126Z" fill="white"/>
      </mask>
      <g mask="url(#mask28_2003_768)">
        <mask id="mask29_2003_768" style="mask-type:luminance" maskUnits="userSpaceOnUse" x="116" y="69" width="55" height="54">
          <path d="M143.573 115.904C132.61 115.904 123.691 106.985 123.691 96.0221C123.691 85.0593 132.61 76.1403 143.573 76.1403C154.536 76.1403 163.45 85.0593 163.45 96.0221C163.45 106.985 154.536 115.904 143.573 115.904ZM143.573 69.126C128.742 69.126 116.677 81.1995 116.677 96.0221C116.677 110.853 128.742 122.918 143.573 122.918C158.404 122.918 170.469 110.853 170.469 96.0221C170.469 81.1995 158.404 69.126 143.573 69.126Z" fill="white"/>
        </mask>
        <g mask="url(#mask29_2003_768)">
          <path d="M116.677 69.126V122.918H170.469V69.126H116.677Z" fill="#40A7E3"/>
        </g>
      </g>
    </g>
  </g>
</svg>