<svg xmlns="http://www.w3.org/2000/svg" width="40" height="40" viewBox="0 0 40 40" fill="none">
  <path d="M19.9996 39C30.3757 39 39 30.3941 39 20C39 9.62415 30.3566 1 19.9805 1C9.58698 1 1 9.62415 1 20C1 30.3941 9.60526 39 19.9996 39ZM10.8904 17.932C10.8904 14.0018 14.1133 10.779 18.0619 10.779C21.993 10.779 25.2151 14.0018 25.2151 17.932C25.2226 19.4099 24.7594 20.8519 23.8925 22.0489L28.55 26.7064C28.8107 26.967 28.9784 27.3207 28.9784 27.6744C28.9784 28.4572 28.438 28.9969 27.7115 28.9969C27.2831 28.9969 26.9294 28.8666 26.575 28.5121L21.9739 23.9119C20.8157 24.6858 19.4548 25.1005 18.0619 25.1041C14.1133 25.1041 10.8904 21.8812 10.8904 17.932ZM12.9577 17.932C12.9577 20.7264 15.2682 23.0361 18.0619 23.0361C20.8198 23.0361 23.1287 20.7264 23.1287 17.932C23.1287 15.1757 20.819 12.8653 18.0619 12.8653C15.2682 12.8653 12.9577 15.1757 12.9577 17.932Z" fill="#40A7E3"/>
</svg>