<svg width="14" height="15" viewBox="0 0 14 15" fill="none" xmlns="http://www.w3.org/2000/svg">
<g clip-path="url(#clip0_2054_451)">
<path d="M7 0.499756C10.8661 0.499756 14 3.63366 14 7.49976C14 11.3659 10.8661 14.4998 7 14.4998C3.1339 14.4998 0 11.3659 0 7.49976C0 3.63366 3.1339 0.499756 7 0.499756ZM7 1.89976C5.51479 1.89976 4.09041 2.48975 3.0402 3.53996C1.99 4.59016 1.4 6.01454 1.4 7.49976C1.4 8.98497 1.99 10.4094 3.0402 11.4596C4.09041 12.5098 5.51479 13.0998 7 13.0998C8.48521 13.0998 9.90959 12.5098 10.9598 11.4596C12.01 10.4094 12.6 8.98497 12.6 7.49976C12.6 6.01454 12.01 4.59016 10.9598 3.53996C9.90959 2.48975 8.48521 1.89976 7 1.89976ZM7 3.29976C7.17145 3.29978 7.33694 3.36273 7.46506 3.47666C7.59318 3.59059 7.67504 3.74758 7.6951 3.91786L7.7 3.99976V7.20996L9.5949 9.10486C9.72044 9.23083 9.79333 9.39986 9.79876 9.57762C9.80419 9.75539 9.74175 9.92855 9.62413 10.062C9.5065 10.1953 9.34251 10.279 9.16547 10.2958C8.98842 10.3127 8.81159 10.2615 8.6709 10.1528L8.6051 10.0947L6.5051 7.99466C6.39631 7.88577 6.32643 7.74406 6.3063 7.59146L6.3 7.49976V3.99976C6.3 3.8141 6.37375 3.63606 6.50503 3.50478C6.6363 3.37351 6.81435 3.29976 7 3.29976Z" fill="#808080"/>
</g>
<defs>
<clipPath id="clip0_2054_451">
<rect width="14" height="14" fill="white" transform="translate(0 0.5)"/>
</clipPath>
</defs>
</svg>
