<svg xmlns="http://www.w3.org/2000/svg" width="150" height="150" viewBox="0 0 150 150" fill="none">
  <g opacity="0.6">
    <path d="M73.1929 53.6679L73.1929 53.6678C73.4381 52.9136 74.1399 52.4053 74.9306 52.4053C75.7218 52.4053 76.4211 52.914 76.6662 53.6678L79.4211 62.1421H88.3332C89.1244 62.1421 89.8258 62.6529 90.0709 63.4044L90.0711 63.4049C90.3145 64.1565 90.0474 64.9812 89.4083 65.4463L89.4081 65.4464L82.1957 70.6856L84.9505 79.1617C85.1959 79.914 84.926 80.7397 84.2875 81.2024C83.6469 81.6673 82.7822 81.6672 82.1411 81.2024L82.1409 81.2022L74.9306 75.9631L67.7184 81.2021L73.1929 53.6679ZM73.1929 53.6679L70.4401 62.1421H61.5266C60.7355 62.1421 60.0338 62.6529 59.7902 63.4049C59.5467 64.1565 59.8138 64.9812 60.453 65.4463L60.4531 65.4464M73.1929 53.6679L60.4531 65.4464M60.4531 65.4464L67.6634 70.6856L64.9092 79.162L64.9091 79.1622M60.4531 65.4464L64.9091 79.1622M64.9091 79.1622C64.6656 79.9141 64.9329 80.7373 65.5736 81.2023M64.9091 79.1622L65.5736 81.2023M65.5736 81.2023C66.2127 81.6673 67.0791 81.6673 67.7182 81.2023L65.5736 81.2023ZM78.9761 68.5106L78.9758 68.5108C78.3374 68.976 78.0706 69.799 78.313 70.5524L78.3132 70.5531L79.7409 74.9472L76.0042 72.2307C75.3629 71.7641 74.4962 71.764 73.8555 72.2308L70.1188 74.9473L71.5458 70.5531C71.791 69.7988 71.522 68.9757 70.8832 68.5108L70.883 68.5106L67.1446 65.7944H71.7658C72.5564 65.7944 73.2576 65.2863 73.5014 64.5341C73.5014 64.534 73.5014 64.5339 73.5015 64.5338L74.9305 60.1376L76.3576 64.534L76.3578 64.5346C76.6038 65.286 77.3045 65.7944 78.094 65.7944H82.7151L78.9761 68.5106Z" fill="#40A7E3" stroke="#40A7E3" stroke-width="0.5"/>
    <path d="M89.1111 41.6599H60.7502C59.74 41.6599 58.9233 42.477 58.9233 43.4846C58.9233 44.4953 59.7402 45.3101 60.7502 45.3101H89.1111C90.1187 45.3101 90.938 44.4955 90.938 43.4846C90.938 42.4768 90.1189 41.6599 89.1111 41.6599Z" fill="#40A7E3" stroke="#40A7E3" stroke-width="0.5"/>
    <path d="M16.8796 121.481C16.8796 120.039 15.7092 118.869 14.2661 118.869C12.8229 118.869 11.6533 120.039 11.6533 121.481C11.6533 122.924 12.8227 124.095 14.2661 124.095C15.7095 124.095 16.8796 122.924 16.8796 121.481Z" fill="#40A7E3" stroke="#40A7E3" stroke-width="0.5"/>
    <path d="M40.5151 96.2703C40.5151 94.827 39.3456 93.6575 37.9023 93.6575C36.4585 93.6575 35.2881 94.8269 35.2881 96.2703C35.2881 97.715 36.4584 98.8845 37.9023 98.8845C39.3457 98.8845 40.5151 97.7149 40.5151 96.2703Z" fill="#40A7E3" stroke="#40A7E3" stroke-width="0.5"/>
    <path d="M138.207 44.2727C138.207 42.831 137.038 41.6599 135.594 41.6599C134.152 41.6599 132.98 42.8308 132.98 44.2727C132.98 45.7176 134.152 46.887 135.594 46.887C137.038 46.887 138.207 45.7173 138.207 44.2727Z" fill="#40A7E3" stroke="#40A7E3" stroke-width="0.5"/>
    <path d="M120.875 9.60938C120.875 8.16481 119.705 6.99512 118.262 6.99512C116.817 6.99512 115.647 8.16461 115.647 9.60938C115.647 11.0528 116.817 12.2222 118.262 12.2222C119.705 12.2222 120.875 11.0526 120.875 9.60938Z" fill="#40A7E3" stroke="#40A7E3" stroke-width="0.5"/>
    <path d="M42.0911 6.45801C42.0911 5.01231 40.9205 3.84521 39.4775 3.84521C38.0339 3.84521 36.8633 5.01226 36.8633 6.45801C36.8633 7.90307 38.0339 9.07007 39.4775 9.07007C40.9205 9.07007 42.0911 7.90302 42.0911 6.45801Z" fill="#40A7E3" stroke="#40A7E3" stroke-width="0.5"/>
    <path d="M13.73 31.6685C13.73 30.2236 12.5589 29.0542 11.1157 29.0542C9.67258 29.0542 8.50146 30.2236 8.50146 31.6685C8.50146 33.1103 9.67258 34.2812 11.1157 34.2812C12.5589 34.2812 13.73 33.1103 13.73 31.6685Z" fill="#40A7E3" stroke="#40A7E3" stroke-width="0.5"/>
    <path d="M107.481 89.9675C107.481 88.5249 106.311 87.3555 104.867 87.3555C103.424 87.3555 102.254 88.525 102.254 89.9675C102.254 91.4105 103.423 92.5825 104.867 92.5825C106.312 92.5825 107.481 91.4106 107.481 89.9675Z" fill="#40A7E3" stroke="#40A7E3" stroke-width="0.5"/>
    <path d="M130.329 123.057C130.329 121.613 129.159 120.444 127.716 120.444C126.271 120.444 125.102 121.613 125.102 123.057C125.102 124.499 126.271 125.671 127.716 125.671C129.159 125.671 130.329 124.499 130.329 123.057Z" fill="#40A7E3" stroke="#40A7E3" stroke-width="0.5"/>
    <path d="M48.3943 61.1326V37.4316H101.467V61.1326C101.467 69.3752 97.7295 77.196 90.8489 82.3641C85.1728 86.6277 82.7962 93.7124 84.6107 100.274H66.0796C67.6532 93.6893 65.1608 86.7378 59.6026 82.7966L59.6025 82.7965C52.5832 77.8226 48.3943 69.7233 48.3943 61.1326ZM93.041 85.2856L92.8909 85.0857L93.041 85.2856C97.475 81.9549 100.814 77.6084 102.846 72.6845C115.229 69.3542 124.026 58.0966 124.026 45.0603V27.7297C124.026 26.7219 123.209 25.9028 122.201 25.9028H105.119V16.6987C105.119 15.6902 104.301 14.874 103.292 14.874H46.5674C45.5592 14.874 44.7427 15.6905 44.7427 16.6987V25.9028H27.6599C26.6514 25.9028 25.8345 26.7219 25.8345 27.7297V45.0603C25.8345 58.1511 34.6895 69.3883 47.0508 72.6936C49.2038 77.8791 52.7911 82.4439 57.4926 85.7774L57.6372 85.5735L57.4927 85.7775C62.0583 89.0131 63.9657 94.8764 62.2955 100.274H56.0208C55.0131 100.274 54.196 101.092 54.196 102.101V112.565H43.4158C42.4085 112.565 41.5903 113.382 41.5903 114.39V144.328C41.5903 145.338 42.4087 146.153 43.4158 146.153H106.444C107.452 146.153 108.268 145.338 108.268 144.328V114.39C108.268 113.383 107.452 112.565 106.444 112.565H95.6648V102.101C95.6648 101.092 94.8459 100.274 93.8379 100.274H88.4448C86.494 94.892 88.2989 88.8468 93.041 85.2856ZM105.119 61.1326V29.5544H120.374V45.0603C120.374 55.6215 113.886 64.7954 104.244 68.4089C104.819 66.0629 105.119 63.6252 105.119 61.1326ZM92.0132 112.565H57.8477V103.927H57.9003H57.9611H58.0218H58.0827H58.1436H58.2046H58.2656H58.3267H58.3878H58.449H58.5103H58.5716H58.633H58.6944H58.7559H58.8175H58.8791H58.9408H59.0025H59.0643H59.1262H59.1881H59.2501H59.3121H59.3742H59.4363H59.4985H59.5607H59.623H59.6854H59.7478H59.8103H59.8728H59.9354H59.998H60.0607H60.1235H60.1863H60.2491H60.312H60.375H60.438H60.5011H60.5642H60.6274H60.6906H60.7539H60.8172H60.8806H60.9441H61.0075H61.0711H61.1347H61.1983H61.262H61.3258H61.3895H61.4534H61.5173H61.5812H61.6452H61.7093H61.7734H61.8375H61.9017H61.9659H62.0302H62.0946H62.159H62.2234H62.2879H62.3524H62.417H62.4816H62.5463H62.611H62.6757H62.7406H62.8054H62.8703H62.9353H63.0002H63.0653H63.1304H63.1955H63.2607H63.3259H63.3912H63.4565H63.5218H63.5872H63.6526H63.7181H63.7836H63.8492H63.9148H63.9805H64.0462H64.1119H64.1777H64.2435H64.3094H64.3753H64.4412H64.5072H64.5732H64.6393H64.7054H64.7716H64.8378H64.904H64.9702H65.0366H65.1029H65.1693H65.2357H65.3022H65.3687H65.4352H65.5018H65.5684H65.6351H65.7018H65.7685H65.8353H65.9021H65.9689H66.0358H66.1027H66.1696H66.2366H66.3036H66.3707H66.4378H66.5049H66.5721H66.6393H66.7065H66.7737H66.841H66.9084H66.9757H67.0431H67.1106H67.178H67.2455H67.3131H67.3806H67.4482H67.5158H67.5835H67.6512H67.7189H67.7867H67.8545H67.9223H67.9901H68.058H68.1259H68.1938H68.2618H68.3298H68.3978H68.4659H68.534H68.6021H68.6702H68.7384H68.8066H68.8748H68.9431H69.0114H69.0797H69.148H69.2164H69.2848H69.3532H69.4216H69.4901H69.5586H69.6271H69.6957H69.7643H69.8329H69.9015H69.9701H70.0388H70.1075H70.1762H70.245H70.3138H70.3826H70.4514H70.5202H70.5891H70.658H70.7269H70.7958H70.8648H70.9338H71.0028H71.0718H71.1409H71.2099H71.279H71.3481H71.4172H71.4864H71.5556H71.6248H71.694H71.7632H71.8325H71.9017H71.971H72.0403H72.1096H72.179H72.2484H72.3177H72.3871H72.4566H72.526H72.5955H72.6649H72.7344H72.8039H72.8734H72.943H73.0125H73.0821H73.1517H73.2213H73.2909H73.3605H73.4302H73.4999H73.5695H73.6392H73.7089H73.7786H73.8484H73.9181H73.9879H74.0577H74.1275H74.1973H74.2671H74.3369H74.4067H74.4766H74.5464H74.6163H74.6862H74.7561H74.826H74.8959H74.9659H75.0358H75.1058H75.1757H75.2457H75.3157H75.3857H75.4557H75.5257H75.5957H75.6657H75.7357H75.8058H75.8758H75.9459H76.016H76.086H76.1561H76.2262H76.2963H76.3664H76.4365H76.5066H76.5768H76.6469H76.717H76.7872H76.8573H76.9274H76.9976H77.0678H77.1379H77.2081H77.2783H77.3484H77.4186H77.4888H77.559H77.6292H77.6994H77.7696H77.8398H77.91H77.9802H78.0504H78.1206H78.1908H78.261H78.3312H78.4014H78.4717H78.5419H78.6121H78.6823H78.7525H78.8227H78.8929H78.9632H79.0334H79.1036H79.1738H79.244H79.3142H79.3844H79.4546H79.5248H79.595H79.6652H79.7354H79.8056H79.8758H79.946H80.0162H80.0863H80.1565H80.2267H80.2969H80.367H80.4372H80.5073H80.5775H80.6476H80.7177H80.7879H80.858H80.9281H80.9982H81.0683H81.1384H81.2085H81.2786H81.3487H81.4188H81.4888H81.5589H81.6289H81.699H81.769H81.839H81.909H81.979H82.049H82.119H82.189H82.2589H82.3289H82.3988H82.4688H82.5387H82.6086H82.6785H82.7484H82.8183H82.8881H82.958H83.0278H83.0977H83.1675H83.2373H83.3071H83.3769H83.4466H83.5164H83.5861H83.6559H83.7256H83.7953H83.865H83.9346H84.0043H84.0739H84.1435H84.2131H84.2827H84.3523H84.4219H84.4914H84.561H84.6305H84.7H84.7694H84.8389H84.9083H84.9778H85.0472H85.1166H85.1859H85.2553H85.3246H85.3939H85.4632H85.5325H85.6018H85.671H85.7402H85.8094H85.8786H85.9478H86.0169H86.086H86.1551H86.2242H86.2933H86.3623H86.4313H86.5003H86.5692H86.6382H86.7071H86.776H86.8449H86.9137H86.9826H87.0514H87.1202H87.1889H87.2577H87.3264H87.3951H87.4637H87.5323H87.601H87.6695H87.7381H87.8066H87.8751H87.9436H88.0121H88.0805H88.1489H88.2173H88.2856H88.354H88.4223H88.4905H88.5588H88.627H88.6952H88.7633H88.8314H88.8995H88.9676H89.0356H89.1036H89.1716H89.2396H89.3075H89.3754H89.4432H89.5111H89.5789H89.6466H89.7144H89.7821H89.8497H89.9174H89.985H90.0526H90.1201H90.1876H90.2551H90.3225H90.39H90.4573H90.5247H90.592H90.6593H90.7265H90.7937H90.8609H90.928H90.9951H91.0622H91.1292H91.1962H91.2632H91.3301H91.397H91.4639H91.5307H91.5975H91.6642H91.7309H91.7976H91.8642H91.9308H91.9973H92.0132V112.565ZM104.619 122.019H45.2427V116.217H45.2638H45.306H45.349H45.3929H45.4376H45.4832H45.5296H45.5768H45.6249H45.6737H45.7235H45.774H45.8253H45.8775H45.9305H45.9843H46.0389H46.0942H46.1504H46.2074H46.2652H46.3238H46.3831H46.4432H46.5041H46.5658H46.6283H46.6915H46.7555H46.8202H46.8858H46.952H47.019H47.0868H47.1553H47.2246H47.2946H47.3653H47.4368H47.509H47.5819H47.6555H47.7299H47.8049H47.8807H47.9572H48.0344H48.1123H48.191H48.2703H48.3503H48.4309H48.5123H48.5944H48.6771H48.7605H48.8446H48.9294H49.0148H49.1009H49.1876H49.275H49.3631H49.4518H49.5412H49.6312H49.7218H49.8131H49.905H49.9975H50.0907H50.1845H50.2789H50.374H50.4696H50.5659H50.6627H50.7602H50.8583H50.957H51.0562H51.1561H51.2565H51.3576H51.4592H51.5614H51.6642H51.7675H51.8714H51.9759H52.0809H52.1865H52.2927H52.3994H52.5066H52.6144H52.7228H52.8316H52.9411H53.051H53.1615H53.2725H53.384H53.4961H53.6086H53.7217H53.8353H53.9494H54.064H54.1791H54.2947H54.4107H54.5273H54.6444H54.7619H54.8799H54.9984H55.1174H55.2369H55.3568H55.4772H55.598H55.7193H55.841H55.9632H56.0859H56.209H56.3325H56.4565H56.5809H56.7057H56.831H56.9567H57.0828H57.2093H57.3362H57.4636H57.5913H57.7195H57.8481H57.977H58.1064H58.2361H58.3663H58.4968H58.6277H58.759H58.8907H59.0227H59.1551H59.2879H59.421H59.5545H59.6883H59.8225H59.9571H60.0919H60.2272H60.3627H60.4987H60.6349H60.7715H60.9084H61.0456H61.1831H61.321H61.4591H61.5976H61.7364H61.8755H62.0149H62.1546H62.2945H62.4348H62.5754H62.7162H62.8573H62.9987H63.1404H63.2823H63.4245H63.567H63.7097H63.8527H63.9959H64.1394H64.2832H64.4272H64.5714H64.7159H64.8605H65.0055H65.1506H65.296H65.4416H65.5874H65.7335H65.8797H66.0262H66.1728H66.3197H66.4667H66.614H66.7614H66.9091H67.0569H67.2049H67.3531H67.5014H67.65H67.7987H67.9475H68.0965H68.2457H68.3951H68.5446H68.6942H68.844H68.9939H69.144H69.2942H69.4445H69.595H69.7456H69.8963H70.0471H70.1981H70.3491H70.5003H70.6516H70.803H70.9545H71.106H71.2577H71.4095H71.5613H71.7133H71.8653H72.0174H72.1695H72.3218H72.4741H72.6265H72.7789H72.9314H73.0839H73.2365H73.3891H73.5418H73.6945H73.8473H74.0001H74.1529H74.3058H74.4587H74.6116H74.7645H74.9174H75.0704H75.2233H75.3763H75.5292H75.6822H75.8352H75.9881H76.141H76.294H76.4469H76.5997H76.7526H76.9054H77.0582H77.211H77.3637H77.5164H77.669H77.8216H77.9742H78.1266H78.2791H78.4314H78.5838H78.736H78.8882H79.0402H79.1923H79.3442H79.4961H79.6478H79.7995H79.9511H80.1026H80.254H80.4052H80.5564H80.7075H80.8584H81.0093H81.16H81.3106H81.4611H81.6114H81.7616H81.9117H82.0616H82.2114H82.361H82.5105H82.6599H82.8091H82.9581H83.107H83.2557H83.4042H83.5526H83.7007H83.8487H83.9966H84.1442H84.2916H84.4389H84.586H84.7328H84.8795H85.026H85.1722H85.3182H85.4641H85.6097H85.7551H85.9002H86.0452H86.1899H86.3343H86.4786H86.6226H86.7663H86.9098H87.053H87.196H87.3388H87.4812H87.6235H87.7654H87.9071H88.0485H88.1896H88.3304H88.471H88.6113H88.7513H88.891H89.0303H89.1694H89.3082H89.4467H89.5849H89.7228H89.8603H89.9975H90.1344H90.271H90.4072H90.5432H90.6787H90.814H90.9489H91.0834H91.2176H91.3515H91.485H91.6181H91.7509H91.8833H92.0153H92.147H92.2783H92.4092H92.5398H92.6699H92.7997H92.929H93.058H93.1866H93.3148H93.4425H93.5699H93.6968H93.8234H93.9495H94.0752H94.2004H94.3253H94.4497H94.5737H94.6972H94.8203H94.943H95.0652H95.187H95.3083H95.4291H95.5495H95.6694H95.7889H95.9079H96.0264H96.1444H96.262H96.379H96.4956H96.6117H96.7273H96.8424H96.957H97.0711H97.1847H97.2978H97.4104H97.5224H97.634H97.745H97.8555H97.9654H98.0749H98.1838H98.2921H98.3999H98.5072H98.6139H98.7201H98.8257H98.9307H99.0352H99.1391H99.2425H99.3453H99.4475H99.5491H99.6502H99.7506H99.8505H99.9498H100.048H100.147H100.244H100.341H100.437H100.533H100.628H100.722H100.816H100.909H101.002H101.094H101.185H101.276H101.366H101.455H101.544H101.632H101.719H101.806H101.892H101.978H102.062H102.147H102.23H102.313H102.395H102.476H102.557H102.637H102.716H102.795H102.873H102.95H103.027H103.102H103.177H103.252H103.325H103.398H103.471H103.542H103.613H103.683H103.752H103.821H103.888H103.955H104.022H104.087H104.152H104.216H104.279H104.342H104.403H104.464H104.525H104.584H104.619V122.019ZM45.2427 142.504V125.671H104.619V142.504H45.2427ZM29.4846 45.0603V29.5544H44.7427V61.1326C44.7427 63.6141 45.0525 66.0589 45.6408 68.4176C35.9859 64.8132 29.4846 55.6303 29.4846 45.0603ZM101.467 18.5256V25.9028H48.3943V18.5256H101.467ZM48.3943 29.5544H101.467V33.7815H48.3943V29.5544Z" fill="#40A7E3" stroke="#40A7E3" stroke-width="0.5"/>
    <path d="M15.0544 82.6265C12.5858 82.6265 10.5774 80.618 10.5774 78.1501C10.5774 75.6815 12.5858 73.6731 15.0544 73.6731C17.5224 73.6731 19.5315 75.6816 19.5315 78.1501C19.5315 80.618 17.5224 82.6265 15.0544 82.6265ZM15.0544 70.0229C10.5725 70.0229 6.92578 73.6673 6.92578 78.1501C6.92578 82.6323 10.5725 86.2766 15.0544 86.2766C19.5372 86.2766 23.1831 82.6323 23.1831 78.1501C23.1831 73.6673 19.5372 70.0229 15.0544 70.0229Z" fill="#40A7E3" stroke="#40A7E3" stroke-width="0.5"/>
    <path d="M130.078 101.536C125.004 101.536 120.874 97.4063 120.874 92.3325C120.874 87.2557 125.004 83.1262 130.078 83.1262C135.154 83.1262 139.284 87.2557 139.284 92.3325C139.284 97.4063 135.154 101.536 130.078 101.536ZM130.078 79.4746C122.991 79.4746 117.223 85.2416 117.223 92.3325C117.223 99.4191 122.991 105.186 130.078 105.186C137.167 105.186 142.934 99.4191 142.934 92.3325C142.934 85.2416 137.167 79.4746 130.078 79.4746Z" fill="#40A7E3" stroke="#40A7E3" stroke-width="0.5"/>
  </g>
</svg>
