<svg xmlns="http://www.w3.org/2000/svg" width="40" height="40" viewBox="0 0 40 40" fill="none">
  <path d="M6.66659 34.9999C5.74992 34.9999 4.96547 34.6738 4.31325 34.0216C3.66103 33.3694 3.33436 32.5844 3.33325 31.6666V13.3333C3.33325 12.4166 3.65992 11.6321 4.31325 10.9799C4.96659 10.3277 5.75103 10.001 6.66659 9.99992H13.3333V6.66658C13.3333 5.74992 13.6599 4.96547 14.3133 4.31325C14.9666 3.66103 15.751 3.33436 16.6666 3.33325H23.3333C24.2499 3.33325 25.0349 3.65992 25.6883 4.31325C26.3416 4.96659 26.6677 5.75103 26.6666 6.66658V9.99992H33.3333C34.2499 9.99992 35.0349 10.3266 35.6883 10.9799C36.3416 11.6333 36.6677 12.4177 36.6666 13.3333V31.6666C36.6666 32.5833 36.3405 33.3682 35.6883 34.0216C35.036 34.6749 34.251 35.001 33.3333 34.9999H6.66659ZM16.6666 9.99992H23.3333V6.66658H16.6666V9.99992Z" fill="#40A7E3"/>
</svg>